<?xml version="1.0" encoding="utf-8"?>
<!-- Generator: Adobe Illustrator 17.1.0, SVG Export Plug-In . SVG Version: 6.00 Build 0)  -->
<!DOCTYPE svg PUBLIC "-//W3C//DTD SVG 1.1//EN" "http://www.w3.org/Graphics/SVG/1.1/DTD/svg11.dtd">
<svg version="1.1" id="Layer_1" xmlns="http://www.w3.org/2000/svg" xmlns:xlink="http://www.w3.org/1999/xlink" x="0px" y="0px"
	 viewBox="0 0 1280 800" enable-background="new 0 0 1280 800" xml:space="preserve">
<text transform="matrix(1 0 0 1 259.2958 390.9126)"><tspan x="0" y="0" font-family="'Airplane'" font-size="188.25">be</tspan><tspan x="146.079" y="0" font-family="'Airplane'" font-size="188.25" letter-spacing="-5">s</tspan><tspan x="209.895" y="0" font-family="'Airplane'" font-size="188.25" letter-spacing="-6">p</tspan><tspan x="282.558" y="0" font-family="'Airplane'" font-size="188.25" letter-spacing="-4">o</tspan><tspan x="352.396" y="0" font-family="'Airplane'" font-size="188.25" letter-spacing="-7">k</tspan><tspan x="419.599" y="0" font-family="'Airplane'" font-size="188.25" letter-spacing="-2">e</tspan><tspan x="486.427" y="0" font-family="'Airplane'" font-size="188.25">n</tspan></text>
<rect x="213" y="249" display="none" opacity="0.6" width="23" height="156"/>
<rect x="224" y="315" width="18" height="18"/>
<rect x="213" y="405" display="none" opacity="0.6" width="621" height="23"/>
<polyline opacity="0.6" fill="none" stroke="#000000" stroke-width="18" stroke-miterlimit="10" points="261.75,211.113 233,242 
	233,499 310,426 843,426 872,395 "/>
<rect x="734" y="641" width="138" height="38"/>
<text transform="matrix(1 0 0 1 779.5874 669.0352)" fill="#FFFFFF" font-family="'Airplane'" font-size="27.5461">start</text>
<rect x="684" y="641" width="39" height="38"/>
<g>
	<path fill="#FFFFFF" d="M712.212,654.701c0.722-0.916,1.47-1.803,2.192-2.747c0.028-0.028,0.028-0.028,0.028-0.028
		c-0.805-1.082-1.776-2.025-2.913-2.858c0,0,0,0,0,0.028c-0.916,0.721-1.803,1.47-2.663,2.219c-0.361-0.222-0.694-0.416-1.054-0.555
		c-0.416-0.222-0.86-0.388-1.332-0.527c-0.167-0.055-0.333-0.083-0.499-0.139c-0.083-1.165-0.222-2.331-0.333-3.496
		c-0.555-0.083-1.138-0.139-1.692-0.166c-0.166,0-0.305,0-0.444,0s-0.277,0-0.444,0c-0.499,0.028-0.999,0.055-1.498,0.139
		c-0.111,1.165-0.222,2.331-0.333,3.496c-0.194,0.028-0.388,0.083-0.555,0.139c-0.055,0-0.111,0.028-0.167,0.028
		c-0.444,0.139-0.888,0.305-1.304,0.527c-0.361,0.139-0.694,0.333-1.026,0.555c-0.888-0.749-1.776-1.47-2.691-2.192
		c0,0-0.028-0.028-0.055-0.055c-0.194,0.167-0.416,0.333-0.61,0.499c-0.333,0.277-0.638,0.555-0.943,0.888
		c-0.472,0.444-0.888,0.971-1.276,1.498c0,0.028,0,0.028,0.028,0.028c0.721,0.916,1.443,1.803,2.192,2.663
		c-0.194,0.333-0.388,0.694-0.555,1.027c-0.194,0.444-0.388,0.888-0.499,1.359c-0.028,0-0.028,0-0.028,0.028
		c-0.055,0.167-0.111,0.361-0.139,0.583c-1.193,0.083-2.358,0.194-3.523,0.333c-0.055,0.527-0.111,1.082-0.139,1.637
		c0.028,0.832,0.083,1.637,0.222,2.414c1.138,0.139,2.275,0.25,3.44,0.333c0.028,0.194,0.083,0.388,0.139,0.583
		c0.139,0.472,0.333,0.943,0.527,1.387c0.194,0.361,0.361,0.749,0.61,1.11c-0.721,0.888-1.47,1.775-2.164,2.691
		c0.805,1.11,1.748,2.081,2.858,2.858c0,0,0,0,0.028,0c0.888-0.749,1.776-1.47,2.663-2.219c0,0,0,0,0-0.028
		c0.305,0.194,0.583,0.361,0.916,0.5c0.499,0.222,0.999,0.416,1.498,0.555c0.194,0.055,0.361,0.111,0.555,0.139
		c0.083,1.193,0.222,2.33,0.333,3.496c0.499,0.083,0.999,0.111,1.526,0.139c0.139,0,0.388,0,0.805,0
		c0.583-0.028,1.165-0.083,1.748-0.166c0.111-1.165,0.25-2.33,0.333-3.523c0.167-0.028,0.333-0.083,0.499-0.111
		c0.472-0.139,0.916-0.305,1.359-0.527c0.361-0.167,0.749-0.361,1.11-0.61c0,0,0.028,0,0.055,0.028
		c0.888,0.749,1.775,1.47,2.719,2.219c0.166-0.139,0.333-0.277,0.472-0.388c0.333-0.305,0.666-0.583,0.971-0.916
		c0.472-0.499,0.943-1.054,1.359-1.637c-0.721-0.916-1.47-1.803-2.219-2.691c-0.028,0-0.028-0.028-0.028-0.028
		c0.194-0.305,0.333-0.61,0.499-0.916c0.194-0.416,0.361-0.86,0.499-1.304c0-0.055,0.028-0.111,0.028-0.139
		c0.055-0.167,0.083-0.333,0.139-0.472c1.165-0.111,2.33-0.222,3.496-0.333c0.083-0.527,0.111-1.082,0.139-1.637
		c0-0.139,0-0.277,0-0.416s0-0.277,0-0.416c-0.028-0.555-0.055-1.11-0.139-1.637c-1.165-0.111-2.33-0.222-3.496-0.333
		c-0.055-0.139-0.083-0.305-0.139-0.472c-0.139-0.499-0.333-0.971-0.527-1.443C712.6,655.339,712.406,655.006,712.212,654.701z
		 M703.581,655.808c1.132,0,2.103,0.393,2.935,1.202c0.809,0.809,1.201,1.779,1.201,2.935c0,1.132-0.393,2.103-1.201,2.935
		c-0.832,0.809-1.803,1.202-2.935,1.202c-1.155,0-2.126-0.393-2.935-1.202c-0.809-0.832-1.225-1.802-1.225-2.935
		c0-1.155,0.416-2.126,1.225-2.935C701.455,656.201,702.426,655.808,703.581,655.808z"/>
</g>
<text transform="matrix(1 0 0 1 618.6226 530.289)" font-family="'AvenirNextLTPro-DemiCn'" font-size="50.1012">tell your story</text>
</svg>
