<?xml version="1.0" encoding="utf-8"?>
<!-- Generator: Adobe Illustrator 17.1.0, SVG Export Plug-In . SVG Version: 6.00 Build 0)  -->
<!DOCTYPE svg PUBLIC "-//W3C//DTD SVG 1.1//EN" "http://www.w3.org/Graphics/SVG/1.1/DTD/svg11.dtd">
<svg version="1.1" id="Layer_1" xmlns="http://www.w3.org/2000/svg" xmlns:xlink="http://www.w3.org/1999/xlink" x="0px" y="0px"
	 viewBox="0 0 1280 800" enable-background="new 0 0 1280 800" xml:space="preserve">
<g>
	<path d="M327.066,320.507v14.307v16.001v8.849v6.588c-0.126,3.516-0.912,6.81-2.353,9.884c-1.444,3.076-3.389,5.773-5.836,8.095
		c-2.447,2.323-5.303,4.142-8.565,5.459c-3.265,1.317-6.715,1.977-10.354,1.977c-4.645,0-9.101-1.064-13.366-3.2v2.447H268.52
		V245.395h18.072v48.568c4.265-2.132,8.721-3.2,13.366-3.2c3.765,0,7.277,0.659,10.542,1.977c3.262,1.318,6.118,3.171,8.565,5.554
		c2.447,2.386,4.392,5.147,5.835,8.283c1.441,3.139,2.165,6.465,2.165,9.978V320.507z M309.747,317.119
		c0-2.509-0.941-4.642-2.824-6.4c-1.883-1.756-4.142-2.636-6.777-2.636c-1.382,0-2.762,0.253-4.141,0.753
		c-1.383,0.503-2.636,1.162-3.765,1.977c-1.129,0.818-2.042,1.759-2.729,2.824c-0.691,1.067-1.036,2.229-1.036,3.482v49.51
		c0,1.256,0.344,2.447,1.036,3.577c0.688,1.129,1.6,2.103,2.729,2.917c1.129,0.818,2.382,1.477,3.765,1.977
		c1.379,0.504,2.759,0.754,4.141,0.754c2.636,0,4.895-0.909,6.777-2.73c1.882-1.817,2.824-3.982,2.824-6.494V317.119z"/>
	<path d="M396.905,351.003v9.978v3.953c0,3.642-0.724,7.03-2.165,10.165c-1.444,3.139-3.327,5.868-5.648,8.189
		c-2.324,2.323-5.083,4.174-8.283,5.554c-3.2,1.382-6.56,2.07-10.071,2.07c-3.642,0-7.03-0.688-10.166-2.07
		c-3.139-1.38-5.868-3.23-8.189-5.554c-2.324-2.321-4.206-5.051-5.647-8.189c-1.444-3.135-2.165-6.523-2.165-10.165v-2.07v-16.378
		v-15.813v-10.354v-5.271c0.124-3.512,0.876-6.838,2.259-9.977c1.379-3.136,3.262-5.865,5.647-8.189
		c2.382-2.32,5.145-4.142,8.283-5.459c3.136-1.317,6.462-1.977,9.978-1.977c3.512,0,6.839,0.659,9.977,1.977
		c3.136,1.317,5.897,3.139,8.283,5.459c2.382,2.324,4.265,5.054,5.647,8.189c1.379,3.139,2.132,6.465,2.259,9.977v6.589v8.848v6.213
		H380.15h-3.765h-14.684v27.673c0,2.512,0.909,4.677,2.729,6.494c1.818,1.821,3.983,2.729,6.495,2.729
		c2.509,0,4.674-0.908,6.495-2.729c1.818-1.817,2.729-3.982,2.729-6.494v-13.366H396.905z M361.702,322.389h18.448v-7.906
		c0-2.509-0.912-4.674-2.729-6.494c-1.821-1.818-3.985-2.729-6.495-2.729c-2.512,0-4.677,0.911-6.495,2.729
		c-1.821,1.82-2.729,3.985-2.729,6.494V322.389z"/>
	<path d="M457.897,350.062c1.379,2.136,2.603,4.048,3.67,5.742c1.065,1.694,1.944,3.265,2.636,4.706
		c0.688,1.444,1.224,2.856,1.6,4.235c0.376,1.383,0.565,2.889,0.565,4.519c0,2.512-0.659,5.053-1.977,7.624
		c-1.318,2.573-3.106,4.895-5.365,6.965c-2.259,2.071-4.959,3.798-8.095,5.177c-3.139,1.383-6.527,2.071-10.166,2.071
		c-3.642,0-7.03-0.595-10.166-1.789c-3.139-1.19-5.868-3.073-8.189-5.647c-2.324-2.57-4.142-5.803-5.459-9.694
		c-1.317-3.889-1.977-8.533-1.977-13.931h16.566v2.636c0,1.382,0.124,2.823,0.376,4.329c0.25,1.507,0.72,2.889,1.412,4.142
		c0.688,1.256,1.629,2.292,2.824,3.106c1.191,0.817,2.729,1.224,4.612,1.224c2.509,0,4.453-0.814,5.835-2.447
		c1.38-1.63,2.071-3.136,2.071-4.518c0-1.13-0.471-2.542-1.412-4.236c-0.941-1.694-1.915-3.105-2.918-4.235l-22.025-29.743
		c-2.385-3.013-4.206-6.086-5.459-9.225c-1.256-3.136-1.883-6.4-1.883-9.789c0-2.509,0.659-5.05,1.977-7.624
		c1.318-2.57,3.106-4.924,5.365-7.06c2.259-2.132,4.957-3.859,8.095-5.177c3.136-1.317,6.524-1.977,10.166-1.977
		c3.639,0,7.027,0.63,10.166,1.883c3.136,1.256,5.865,3.139,8.189,5.647c2.321,2.512,4.142,5.712,5.459,9.601
		c1.317,3.892,1.977,8.536,1.977,13.931h-16.566v-2.824c0-1.379-0.126-2.823-0.376-4.329c-0.253-1.507-0.723-2.854-1.412-4.048
		c-0.691-1.191-1.632-2.194-2.824-3.012c-1.194-0.815-2.729-1.224-4.612-1.224c-2.512,0-4.456,0.785-5.835,2.353
		c-1.383,1.571-2.071,3.106-2.071,4.612c0,1.006,0.471,2.354,1.412,4.048c0.941,1.694,1.912,3.171,2.918,4.424L457.897,350.062z"/>
	<path d="M537.337,322.013v8.659v15.625v14.119v3.765c0,3.515-0.691,6.81-2.071,9.883c-1.382,3.077-3.265,5.742-5.647,8.001
		c-2.385,2.259-5.177,4.047-8.377,5.365c-3.2,1.317-6.621,1.977-10.26,1.977c-4.518,0-8.913-1.003-13.178-3.012v47.438h-17.695
		V291.516h17.695v2.447c4.015-2.132,8.407-3.2,13.178-3.2c3.512,0,6.871,0.659,10.071,1.977c3.2,1.318,5.992,3.106,8.377,5.365
		c2.382,2.26,4.265,4.895,5.647,7.907c1.379,3.012,2.132,6.212,2.259,9.601V322.013z M520.395,315.236
		c0-2.509-0.912-4.642-2.729-6.4c-1.821-1.756-3.986-2.636-6.495-2.636c-2.636,0-5.242,0.88-7.813,2.636
		c-2.574,1.759-3.859,3.892-3.859,6.4v48.381c0,2.512,1.286,4.611,3.859,6.306c2.571,1.694,5.177,2.542,7.813,2.542
		c2.509,0,4.674-0.848,6.495-2.542c1.817-1.694,2.729-3.794,2.729-6.306V315.236z"/>
	<path d="M605.105,321.449v9.035v16.002v14.495v3.953c0,3.642-0.724,7.03-2.165,10.165c-1.444,3.139-3.327,5.868-5.647,8.189
		c-2.324,2.323-5.083,4.174-8.283,5.554c-3.2,1.382-6.621,2.07-10.26,2.07c-3.642,0-7.03-0.688-10.166-2.07
		c-3.138-1.38-5.868-3.23-8.189-5.554c-2.324-2.321-4.206-5.051-5.647-8.189c-1.444-3.135-2.165-6.523-2.165-10.165v-2.07v-16.378
		v-16.002V320.13v-5.271c0.124-3.513,0.876-6.839,2.259-9.978c1.379-3.136,3.262-5.865,5.647-8.188
		c2.383-2.321,5.145-4.142,8.283-5.46c3.135-1.317,6.462-1.977,9.977-1.977c3.512,0,6.871,0.659,10.071,1.977
		c3.2,1.318,5.992,3.139,8.377,5.46c2.382,2.323,4.265,5.053,5.647,8.188c1.379,3.139,2.132,6.465,2.259,9.978V321.449z
		 M588.163,314.294c0-2.509-0.912-4.674-2.729-6.494c-1.821-1.817-3.986-2.729-6.495-2.729c-2.512,0-4.677,0.912-6.495,2.729
		c-1.821,1.82-2.73,3.985-2.73,6.494v50.075c0,2.512,0.909,4.677,2.73,6.494c1.817,1.821,3.982,2.729,6.495,2.729
		c2.509,0,4.674-0.908,6.495-2.729c1.817-1.817,2.729-3.982,2.729-6.494V314.294z"/>
	<path d="M682.662,390.913h-20.708L638.8,348.933v41.979h-18.072v-25.414v-4.142v-21.084v-0.753v-94.125H638.8v65.512v0.564v0.753
		l0.753-0.941l9.601-15.06h21.837l-7.53,11.295l-14.495,22.401l29.179,52.71L682.662,390.913z"/>
	<path d="M740.076,351.003v9.978v3.953c0,3.642-0.724,7.03-2.165,10.165c-1.444,3.139-3.327,5.868-5.647,8.189
		c-2.324,2.323-5.083,4.174-8.283,5.554c-3.2,1.382-6.56,2.07-10.071,2.07c-3.642,0-7.03-0.688-10.166-2.07
		c-3.138-1.38-5.868-3.23-8.188-5.554c-2.324-2.321-4.206-5.051-5.647-8.189c-1.444-3.135-2.165-6.523-2.165-10.165v-2.07v-16.378
		v-15.813v-10.354v-5.271c0.123-3.512,0.876-6.838,2.259-9.977c1.38-3.136,3.262-5.865,5.647-8.189
		c2.383-2.32,5.145-4.142,8.283-5.459c3.136-1.317,6.463-1.977,9.978-1.977c3.512,0,6.839,0.659,9.978,1.977
		c3.135,1.317,5.897,3.139,8.282,5.459c2.383,2.324,4.266,5.054,5.647,8.189c1.38,3.139,2.133,6.465,2.26,9.977v6.589v8.848v6.213
		h-16.755h-3.765h-14.684v27.673c0,2.512,0.909,4.677,2.729,6.494c1.818,1.821,3.982,2.729,6.495,2.729
		c2.509,0,4.674-0.908,6.494-2.729c1.818-1.817,2.729-3.982,2.729-6.494v-13.366H740.076z M704.873,322.389h18.448v-7.906
		c0-2.509-0.911-4.674-2.729-6.494c-1.82-1.818-3.985-2.729-6.494-2.729c-2.513,0-4.677,0.911-6.495,2.729
		c-1.82,1.82-2.729,3.985-2.729,6.494V322.389z"/>
	<path d="M810.857,299.235c1.629,1.759,3.136,3.765,4.518,6.024c1.13,2.009,2.194,4.394,3.2,7.153
		c1.003,2.762,1.506,5.962,1.506,9.601v50.451v2.635v15.813h-18.448h-0.376v-15.813v-8.282v-45.934c0-1.379-0.377-2.697-1.13-3.953
		c-0.753-1.253-1.727-2.353-2.918-3.294c-1.194-0.941-2.541-1.662-4.047-2.165c-1.507-0.5-2.951-0.753-4.33-0.753
		c-1.383,0-2.918,0.253-4.612,0.753c-1.694,0.503-3.294,1.224-4.801,2.165c-1.506,0.941-2.762,2.041-3.765,3.294
		c-1.006,1.256-1.506,2.574-1.506,3.953v51.581v2.635v15.813h-0.188h-13.742H755.7v-99.396h18.26v5.271
		c2.509-1.63,5.239-2.918,8.189-3.859c2.947-0.941,5.991-1.412,9.13-1.412c3.765,0,7.342,0.691,10.73,2.071
		C805.397,294.97,808.345,296.852,810.857,299.235z"/>
</g>
<rect x="213" y="249" display="none" opacity="0.6" width="23" height="156"/>
<rect x="224" y="315" width="18" height="18"/>
<rect x="213" y="405" display="none" opacity="0.6" width="621" height="23"/>
<polyline opacity="0.6" fill="none" stroke="#000000" stroke-width="18" stroke-miterlimit="10" points="261.75,211.113 233,242 
	233,499 310,426 843,426 872,395 "/>
<rect x="734" y="641" width="138" height="38"/>
<text transform="matrix(1 0 0 1 779.8481 669.0352)" fill="#FFFFFF" font-family="'AvenirNextLTPro-DemiCn'" font-size="27.5461">start</text>
<rect x="684" y="641" width="39" height="38"/>
<g>
	<path fill="#FFFFFF" d="M712.212,654.701c0.722-0.916,1.47-1.803,2.192-2.747c0.028-0.028,0.028-0.028,0.028-0.028
		c-0.805-1.082-1.776-2.025-2.913-2.858c0,0,0,0,0,0.028c-0.916,0.721-1.803,1.47-2.663,2.219c-0.361-0.222-0.694-0.416-1.054-0.555
		c-0.416-0.222-0.86-0.388-1.332-0.527c-0.167-0.055-0.333-0.083-0.499-0.139c-0.083-1.165-0.222-2.331-0.333-3.496
		c-0.555-0.083-1.138-0.139-1.692-0.166c-0.166,0-0.305,0-0.444,0s-0.277,0-0.444,0c-0.499,0.028-0.999,0.055-1.498,0.139
		c-0.111,1.165-0.222,2.331-0.333,3.496c-0.194,0.028-0.388,0.083-0.555,0.139c-0.055,0-0.111,0.028-0.167,0.028
		c-0.444,0.139-0.888,0.305-1.304,0.527c-0.361,0.139-0.694,0.333-1.026,0.555c-0.888-0.749-1.776-1.47-2.691-2.192
		c0,0-0.028-0.028-0.055-0.055c-0.194,0.167-0.416,0.333-0.61,0.499c-0.333,0.277-0.638,0.555-0.943,0.888
		c-0.472,0.444-0.888,0.971-1.276,1.498c0,0.028,0,0.028,0.028,0.028c0.721,0.916,1.443,1.803,2.192,2.663
		c-0.194,0.333-0.388,0.694-0.555,1.027c-0.194,0.444-0.388,0.888-0.499,1.359c-0.028,0-0.028,0-0.028,0.028
		c-0.055,0.167-0.111,0.361-0.139,0.583c-1.193,0.083-2.358,0.194-3.523,0.333c-0.055,0.527-0.111,1.082-0.139,1.637
		c0.028,0.832,0.083,1.637,0.222,2.414c1.138,0.139,2.275,0.25,3.44,0.333c0.028,0.194,0.083,0.388,0.139,0.583
		c0.139,0.472,0.333,0.943,0.527,1.387c0.194,0.361,0.361,0.749,0.61,1.11c-0.721,0.888-1.47,1.775-2.164,2.691
		c0.805,1.11,1.748,2.081,2.858,2.858c0,0,0,0,0.028,0c0.888-0.749,1.776-1.47,2.663-2.219c0,0,0,0,0-0.028
		c0.305,0.194,0.583,0.361,0.916,0.5c0.499,0.222,0.999,0.416,1.498,0.555c0.194,0.055,0.361,0.111,0.555,0.139
		c0.083,1.193,0.222,2.33,0.333,3.496c0.499,0.083,0.999,0.111,1.526,0.139c0.139,0,0.388,0,0.805,0
		c0.583-0.028,1.165-0.083,1.748-0.166c0.111-1.165,0.25-2.33,0.333-3.523c0.167-0.028,0.333-0.083,0.499-0.111
		c0.472-0.139,0.916-0.305,1.359-0.527c0.361-0.167,0.749-0.361,1.11-0.61c0,0,0.028,0,0.055,0.028
		c0.888,0.749,1.775,1.47,2.719,2.219c0.166-0.139,0.333-0.277,0.472-0.388c0.333-0.305,0.666-0.583,0.971-0.916
		c0.472-0.499,0.943-1.054,1.359-1.637c-0.721-0.916-1.47-1.803-2.219-2.691c-0.028,0-0.028-0.028-0.028-0.028
		c0.194-0.305,0.333-0.61,0.499-0.916c0.194-0.416,0.361-0.86,0.499-1.304c0-0.055,0.028-0.111,0.028-0.139
		c0.055-0.167,0.083-0.333,0.139-0.472c1.165-0.111,2.33-0.222,3.496-0.333c0.083-0.527,0.111-1.082,0.139-1.637
		c0-0.139,0-0.277,0-0.416s0-0.277,0-0.416c-0.028-0.555-0.055-1.11-0.139-1.637c-1.165-0.111-2.33-0.222-3.496-0.333
		c-0.055-0.139-0.083-0.305-0.139-0.472c-0.139-0.499-0.333-0.971-0.527-1.443C712.6,655.339,712.406,655.006,712.212,654.701z
		 M703.581,655.808c1.132,0,2.103,0.393,2.935,1.202c0.809,0.809,1.201,1.779,1.201,2.935c0,1.132-0.393,2.103-1.201,2.935
		c-0.832,0.809-1.803,1.202-2.935,1.202c-1.155,0-2.126-0.393-2.935-1.202c-0.809-0.832-1.225-1.802-1.225-2.935
		c0-1.155,0.416-2.126,1.225-2.935C701.455,656.201,702.426,655.808,703.581,655.808z"/>
</g>
<text transform="matrix(1 0 0 1 618.6226 530.289)" font-family="'AvenirNextLTPro-DemiCn'" font-size="50.1012">tell your story</text>
</svg>
