<?xml version="1.0" encoding="utf-8"?>
<!-- Generator: Adobe Illustrator 17.1.0, SVG Export Plug-In . SVG Version: 6.00 Build 0)  -->
<!DOCTYPE svg PUBLIC "-//W3C//DTD SVG 1.1//EN" "http://www.w3.org/Graphics/SVG/1.1/DTD/svg11.dtd">
<svg version="1.1" id="Layer_1" xmlns="http://www.w3.org/2000/svg" xmlns:xlink="http://www.w3.org/1999/xlink" x="0px" y="0px"
	 viewBox="0 0 684 336" enable-background="new 0 0 684 336" xml:space="preserve">
<g>
	<path d="M118.066,125.507v14.307v16.001v8.849v6.588c-0.126,3.516-0.912,6.81-2.353,9.884c-1.444,3.076-3.389,5.773-5.836,8.095
		c-2.447,2.323-5.303,4.142-8.565,5.459c-3.265,1.317-6.715,1.977-10.354,1.977c-4.645,0-9.101-1.064-13.366-3.2v2.447H59.52V50.395
		h18.072v48.568c4.265-2.132,8.721-3.2,13.366-3.2c3.765,0,7.277,0.659,10.542,1.977c3.262,1.318,6.118,3.171,8.565,5.554
		c2.447,2.386,4.392,5.147,5.835,8.283c1.441,3.139,2.165,6.465,2.165,9.978V125.507z M100.747,122.119
		c0-2.509-0.941-4.642-2.824-6.4c-1.883-1.756-4.142-2.636-6.777-2.636c-1.382,0-2.762,0.253-4.141,0.753
		c-1.383,0.503-2.636,1.162-3.765,1.977c-1.129,0.818-2.042,1.759-2.729,2.824c-0.691,1.067-1.036,2.229-1.036,3.482v49.51
		c0,1.256,0.344,2.447,1.036,3.577c0.688,1.129,1.6,2.103,2.729,2.917c1.129,0.818,2.382,1.477,3.765,1.977
		c1.379,0.504,2.759,0.754,4.141,0.754c2.636,0,4.895-0.909,6.777-2.73c1.882-1.817,2.824-3.982,2.824-6.494V122.119z"/>
	<path d="M187.905,156.003v9.978v3.953c0,3.642-0.724,7.03-2.165,10.165c-1.444,3.139-3.327,5.868-5.648,8.189
		c-2.324,2.323-5.083,4.174-8.283,5.554c-3.2,1.382-6.56,2.07-10.071,2.07c-3.642,0-7.03-0.688-10.166-2.07
		c-3.139-1.38-5.868-3.23-8.189-5.554c-2.324-2.321-4.206-5.051-5.647-8.189c-1.444-3.135-2.165-6.523-2.165-10.165v-2.07v-16.378
		v-15.813v-10.354v-5.271c0.124-3.512,0.876-6.838,2.259-9.977c1.379-3.136,3.262-5.865,5.647-8.189
		c2.382-2.32,5.145-4.142,8.283-5.459c3.136-1.317,6.462-1.977,9.978-1.977c3.512,0,6.839,0.659,9.977,1.977
		c3.136,1.317,5.897,3.139,8.283,5.459c2.382,2.324,4.265,5.054,5.647,8.189c1.379,3.139,2.132,6.465,2.259,9.977v6.589v8.848v6.213
		H171.15h-3.765h-14.684v27.673c0,2.512,0.909,4.677,2.729,6.494c1.818,1.821,3.983,2.729,6.495,2.729
		c2.509,0,4.674-0.908,6.495-2.729c1.818-1.817,2.729-3.982,2.729-6.494v-13.366H187.905z M152.702,127.389h18.448v-7.906
		c0-2.509-0.912-4.674-2.729-6.494c-1.821-1.818-3.985-2.729-6.495-2.729c-2.512,0-4.677,0.911-6.495,2.729
		c-1.821,1.82-2.729,3.985-2.729,6.494V127.389z"/>
	<path d="M248.897,155.062c1.379,2.136,2.603,4.048,3.67,5.742c1.065,1.694,1.944,3.265,2.636,4.706
		c0.688,1.444,1.224,2.856,1.6,4.235c0.376,1.383,0.565,2.889,0.565,4.519c0,2.512-0.659,5.053-1.977,7.624
		c-1.318,2.573-3.106,4.895-5.365,6.965c-2.259,2.071-4.959,3.798-8.095,5.177c-3.139,1.383-6.527,2.071-10.166,2.071
		c-3.642,0-7.03-0.595-10.166-1.789c-3.139-1.19-5.868-3.073-8.189-5.647c-2.324-2.57-4.142-5.803-5.459-9.694
		c-1.317-3.889-1.977-8.533-1.977-13.931h16.566v2.636c0,1.382,0.124,2.823,0.376,4.329c0.25,1.507,0.72,2.889,1.412,4.142
		c0.688,1.256,1.629,2.292,2.824,3.106c1.191,0.817,2.729,1.224,4.612,1.224c2.509,0,4.453-0.814,5.835-2.447
		c1.38-1.63,2.071-3.136,2.071-4.518c0-1.13-0.471-2.542-1.412-4.236c-0.941-1.694-1.915-3.105-2.918-4.235l-22.025-29.743
		c-2.385-3.013-4.206-6.086-5.459-9.225c-1.256-3.136-1.883-6.4-1.883-9.789c0-2.509,0.659-5.05,1.977-7.624
		c1.318-2.57,3.106-4.924,5.365-7.06c2.259-2.132,4.957-3.859,8.095-5.177c3.136-1.317,6.524-1.977,10.166-1.977
		c3.639,0,7.027,0.63,10.166,1.883c3.136,1.256,5.865,3.139,8.189,5.647c2.321,2.512,4.142,5.712,5.459,9.601
		c1.317,3.892,1.977,8.536,1.977,13.931h-16.566v-2.824c0-1.379-0.126-2.823-0.376-4.329c-0.253-1.507-0.723-2.854-1.412-4.048
		c-0.691-1.191-1.632-2.194-2.824-3.012c-1.194-0.815-2.729-1.224-4.612-1.224c-2.512,0-4.456,0.785-5.835,2.353
		c-1.383,1.571-2.071,3.106-2.071,4.612c0,1.006,0.471,2.354,1.412,4.048c0.941,1.694,1.912,3.171,2.918,4.424L248.897,155.062z"/>
	<path d="M328.337,127.013v8.659v15.625v14.119v3.765c0,3.515-0.691,6.81-2.071,9.883c-1.382,3.077-3.265,5.742-5.647,8.001
		c-2.385,2.259-5.177,4.047-8.377,5.365c-3.2,1.317-6.621,1.977-10.26,1.977c-4.518,0-8.913-1.003-13.178-3.012v47.438h-17.695
		V96.516h17.695v2.447c4.015-2.132,8.407-3.2,13.178-3.2c3.512,0,6.871,0.659,10.071,1.977c3.2,1.318,5.992,3.106,8.377,5.365
		c2.382,2.26,4.265,4.895,5.647,7.907c1.379,3.012,2.132,6.212,2.259,9.601V127.013z M311.395,120.236
		c0-2.509-0.912-4.642-2.729-6.4c-1.821-1.756-3.986-2.636-6.495-2.636c-2.636,0-5.242,0.88-7.813,2.636
		c-2.574,1.759-3.859,3.892-3.859,6.4v48.381c0,2.512,1.286,4.611,3.859,6.306c2.571,1.694,5.177,2.542,7.813,2.542
		c2.509,0,4.674-0.848,6.495-2.542c1.817-1.694,2.729-3.794,2.729-6.306V120.236z"/>
	<path d="M396.105,126.449v9.035v16.002v14.495v3.953c0,3.642-0.724,7.03-2.165,10.165c-1.444,3.139-3.327,5.868-5.647,8.189
		c-2.324,2.323-5.083,4.174-8.283,5.554c-3.2,1.382-6.621,2.07-10.26,2.07c-3.642,0-7.03-0.688-10.166-2.07
		c-3.138-1.38-5.868-3.23-8.189-5.554c-2.324-2.321-4.206-5.051-5.647-8.189c-1.444-3.135-2.165-6.523-2.165-10.165v-2.07v-16.378
		v-16.002V125.13v-5.271c0.124-3.513,0.876-6.839,2.259-9.978c1.379-3.136,3.262-5.865,5.647-8.188
		c2.383-2.321,5.145-4.142,8.283-5.46c3.135-1.317,6.462-1.977,9.977-1.977c3.512,0,6.871,0.659,10.071,1.977
		c3.2,1.318,5.992,3.139,8.377,5.46c2.382,2.323,4.265,5.053,5.647,8.188c1.379,3.139,2.132,6.465,2.259,9.978V126.449z
		 M379.163,119.294c0-2.509-0.912-4.674-2.729-6.494c-1.821-1.817-3.986-2.729-6.495-2.729c-2.512,0-4.677,0.912-6.495,2.729
		c-1.821,1.82-2.73,3.985-2.73,6.494v50.075c0,2.512,0.909,4.677,2.73,6.494c1.817,1.821,3.982,2.729,6.495,2.729
		c2.509,0,4.674-0.908,6.495-2.729c1.817-1.817,2.729-3.982,2.729-6.494V119.294z"/>
	<path d="M473.662,195.913h-20.708L429.8,153.933v41.979h-18.072v-25.414v-4.142v-21.084v-0.753V50.395H429.8v65.512v0.564v0.753
		l0.753-0.941l9.601-15.06h21.837l-7.53,11.295l-14.495,22.401l29.179,52.71L473.662,195.913z"/>
	<path d="M531.076,156.003v9.978v3.953c0,3.642-0.724,7.03-2.165,10.165c-1.444,3.139-3.327,5.868-5.647,8.189
		c-2.324,2.323-5.083,4.174-8.283,5.554c-3.2,1.382-6.56,2.07-10.071,2.07c-3.642,0-7.03-0.688-10.166-2.07
		c-3.138-1.38-5.868-3.23-8.188-5.554c-2.324-2.321-4.206-5.051-5.647-8.189c-1.444-3.135-2.165-6.523-2.165-10.165v-2.07v-16.378
		v-15.813v-10.354v-5.271c0.123-3.512,0.876-6.838,2.259-9.977c1.38-3.136,3.262-5.865,5.647-8.189
		c2.383-2.32,5.145-4.142,8.283-5.459c3.136-1.317,6.463-1.977,9.978-1.977c3.512,0,6.839,0.659,9.978,1.977
		c3.135,1.317,5.897,3.139,8.282,5.459c2.383,2.324,4.266,5.054,5.647,8.189c1.38,3.139,2.133,6.465,2.26,9.977v6.589v8.848v6.213
		h-16.755h-3.765h-14.684v27.673c0,2.512,0.909,4.677,2.729,6.494c1.818,1.821,3.982,2.729,6.495,2.729
		c2.509,0,4.674-0.908,6.494-2.729c1.818-1.817,2.729-3.982,2.729-6.494v-13.366H531.076z M495.873,127.389h18.448v-7.906
		c0-2.509-0.911-4.674-2.729-6.494c-1.82-1.818-3.985-2.729-6.494-2.729c-2.513,0-4.677,0.911-6.495,2.729
		c-1.82,1.82-2.729,3.985-2.729,6.494V127.389z"/>
	<path d="M601.857,104.235c1.629,1.759,3.136,3.765,4.518,6.024c1.13,2.009,2.194,4.394,3.2,7.153
		c1.003,2.762,1.506,5.962,1.506,9.601v50.451v2.635v15.813h-18.448h-0.376v-15.813v-8.282v-45.934c0-1.379-0.377-2.697-1.13-3.953
		c-0.753-1.253-1.727-2.353-2.918-3.294c-1.194-0.941-2.541-1.662-4.047-2.165c-1.507-0.5-2.951-0.753-4.33-0.753
		c-1.383,0-2.918,0.253-4.612,0.753c-1.694,0.503-3.294,1.224-4.801,2.165c-1.506,0.941-2.762,2.041-3.765,3.294
		c-1.006,1.256-1.506,2.574-1.506,3.953v51.581v2.635v15.813h-0.188h-13.742H546.7V96.516h18.26v5.271
		c2.509-1.63,5.239-2.918,8.189-3.859c2.947-0.941,5.991-1.412,9.13-1.412c3.765,0,7.342,0.691,10.73,2.071
		C596.397,99.97,599.345,101.852,601.857,104.235z"/>
</g>
<rect x="4" y="54" display="none" opacity="0.6" width="23" height="156"/>
<rect x="15" y="120" width="18" height="18"/>
<rect x="4" y="210" display="none" opacity="0.6" width="621" height="23"/>
<polyline opacity="0.6" fill="none" stroke="#000000" stroke-width="18" stroke-miterlimit="10" points="52.75,16.113 24,47 24,304 
	101,231 634,231 663,200 "/>
</svg>
